<?xml version="1.0" encoding="UTF-8" ?>
<svg width="2896.309375740099" height="2896.309375740099" xmlns="http://www.w3.org/2000/svg">
  <path d="M 181.01933598375618 362.03867196751236 L0 362.03867196751236 L0 181.01933598375618 L181.01933598375618 181.01933598375618 L362.03867196751236 181.01933598375618 L362.03867196751236 362.03867196751236 L181.01933598375618 362.03867196751236 L181.01933598375618 181.01933598375618 L181.01933598375618 0 L362.03867196751236 0 L362.03867196751236 181.01933598375618 L181.01933598375618 181.01933598375618 L0 181.01933598375618 L0 0 L181.01933598375618 0 L181.01933598375618 181.01933598375618 Z" style="fill:rgba(0, 0, 0, 0)" />
  <path d="M 543.0580079512686 362.03867196751236 L362.03867196751236 362.03867196751236 L362.03867196751236 181.01933598375618 L543.0580079512686 181.01933598375618 L724.0773439350247 181.01933598375618 L724.0773439350247 362.03867196751236 L543.0580079512686 362.03867196751236 L543.0580079512686 181.01933598375618 L543.0580079512686 0 L724.0773439350247 0 L724.0773439350247 181.01933598375618 L543.0580079512686 181.01933598375618 L362.03867196751236 181.01933598375618 L362.03867196751236 0 L543.0580079512686 0 L543.0580079512686 181.01933598375618 Z" style="fill:rgba(0, 0, 0, 0)" />
  <path d="M 905.0966799187809 362.03867196751236 L724.0773439350247 362.03867196751236 L724.0773439350247 181.01933598375618 L905.0966799187809 181.01933598375618 L1086.1160159025371 181.01933598375618 L1086.1160159025371 362.03867196751236 L905.0966799187809 362.03867196751236 L905.0966799187809 181.01933598375618 L905.0966799187809 0 L1086.1160159025371 0 L1086.1160159025371 181.01933598375618 L905.0966799187809 181.01933598375618 L724.0773439350247 181.01933598375618 L724.0773439350247 0 L905.0966799187809 0 L905.0966799187809 181.01933598375618 Z" style="fill:rgba(0, 0, 0, 0)" />
  <path d="M 1267.1353518862932 362.03867196751236 L1086.1160159025371 362.03867196751236 L1086.1160159025371 181.01933598375618 L1267.1353518862932 181.01933598375618 L1448.1546878700494 181.01933598375618 L1448.1546878700494 362.03867196751236 L1267.1353518862932 362.03867196751236 L1267.1353518862932 181.01933598375618 L1267.1353518862932 0 L1448.1546878700494 0 L1448.1546878700494 181.01933598375618 L1267.1353518862932 181.01933598375618 L1086.1160159025371 181.01933598375618 L1086.1160159025371 0 L1267.1353518862932 0 L1267.1353518862932 181.01933598375618 Z" style="fill:rgba(0, 0, 0, 0)" />
  <path d="M 1629.1740238538057 181.01933598375618 L1448.1546878700494 181.01933598375618 L1448.1546878700494 0 L1629.1740238538057 0 L1991.212695821318 0 L1991.212695821318 181.01933598375618 L1810.1933598375617 181.01933598375618 L1448.1546878700494 181.01933598375618 L1448.1546878700494 0 L1629.1740238538057 0 Z" style="fill:rgba(0, 0, 0, 0)" />
  <path d="M 2172.2320318050743 181.01933598375618 L1991.212695821318 181.01933598375618 L1991.212695821318 0 L2172.2320318050743 0 L2896.309375740099 0 L2896.309375740099 181.01933598375618 L2896.309375740099 2715.2900397563426 L2715.2900397563426 2715.2900397563426 L2715.2900397563426 2534.2707037725863 L2715.2900397563426 0 L2896.309375740099 0 L2896.309375740099 181.01933598375618 L2715.2900397563426 181.01933598375618 L1991.212695821318 181.01933598375618 L1991.212695821318 0 L2172.2320318050743 0 Z" style="fill:rgba(29, 79, 216, 255)" />
  <path d="M 1629.1740238538057 362.03867196751236 L1448.1546878700494 362.03867196751236 L1448.1546878700494 181.01933598375618 L1629.1740238538057 181.01933598375618 L1991.212695821318 181.01933598375618 L1991.212695821318 362.03867196751236 L1810.1933598375617 362.03867196751236 L1448.1546878700494 362.03867196751236 L1448.1546878700494 181.01933598375618 L1629.1740238538057 181.01933598375618 Z" style="fill:rgba(29, 79, 216, 255)" />
  <path d="M 2172.2320318050743 362.03867196751236 L1991.212695821318 362.03867196751236 L1991.212695821318 181.01933598375618 L2172.2320318050743 181.01933598375618 L2715.2900397563426 181.01933598375618 L2715.2900397563426 362.03867196751236 L2715.2900397563426 2715.2900397563426 L2534.2707037725863 2715.2900397563426 L1991.212695821318 2715.2900397563426 L1991.212695821318 2534.2707037725863 L1991.212695821318 2353.2513677888305 L2172.2320318050743 2353.2513677888305 L2534.2707037725863 2353.2513677888305 L2534.2707037725863 2534.2707037725863 L2353.2513677888305 2534.2707037725863 L2353.2513677888305 2353.2513677888305 L2353.2513677888305 1810.1933598375617 L2534.2707037725863 1810.1933598375617 L2715.2900397563426 1810.1933598375617 L2715.2900397563426 1991.212695821318 L2534.2707037725863 1991.212695821318 L2534.2707037725863 1810.1933598375617 L2534.2707037725863 362.03867196751236 L2715.2900397563426 362.03867196751236 L2715.2900397563426 543.0580079512686 L2534.2707037725863 543.0580079512686 L2353.2513677888305 543.0580079512686 L2353.2513677888305 362.03867196751236 L2353.2513677888305 181.01933598375618 L2534.2707037725863 181.01933598375618 L2534.2707037725863 362.03867196751236 L2353.2513677888305 362.03867196751236 L1991.212695821318 362.03867196751236 L1991.212695821318 181.01933598375618 L2172.2320318050743 181.01933598375618 Z" style="fill:rgba(59, 131, 246, 255)" />
  <path d="M 181.01933598375618 724.0773439350247 L0 724.0773439350247 L0 543.0580079512686 L181.01933598375618 543.0580079512686 L362.03867196751236 543.0580079512686 L362.03867196751236 724.0773439350247 L181.01933598375618 724.0773439350247 L181.01933598375618 543.0580079512686 L181.01933598375618 362.03867196751236 L362.03867196751236 362.03867196751236 L362.03867196751236 543.0580079512686 L181.01933598375618 543.0580079512686 L0 543.0580079512686 L0 362.03867196751236 L181.01933598375618 362.03867196751236 L181.01933598375618 543.0580079512686 Z" style="fill:rgba(0, 0, 0, 0)" />
  <path d="M 543.0580079512686 724.0773439350247 L362.03867196751236 724.0773439350247 L362.03867196751236 543.0580079512686 L543.0580079512686 543.0580079512686 L724.0773439350247 543.0580079512686 L724.0773439350247 724.0773439350247 L543.0580079512686 724.0773439350247 L543.0580079512686 543.0580079512686 L543.0580079512686 362.03867196751236 L724.0773439350247 362.03867196751236 L724.0773439350247 543.0580079512686 L543.0580079512686 543.0580079512686 L362.03867196751236 543.0580079512686 L362.03867196751236 362.03867196751236 L543.0580079512686 362.03867196751236 L543.0580079512686 543.0580079512686 Z" style="fill:rgba(0, 0, 0, 0)" />
  <path d="M 724.0773439350247 543.0580079512686 L724.0773439350247 362.03867196751236 L905.0966799187809 362.03867196751236 L905.0966799187809 543.0580079512686 Z" style="fill:rgba(0, 0, 0, 0)" />
  <path d="M 1086.1160159025371 543.0580079512686 L905.0966799187809 543.0580079512686 L905.0966799187809 362.03867196751236 L1086.1160159025371 362.03867196751236 L1448.1546878700494 362.03867196751236 L1448.1546878700494 543.0580079512686 L1267.1353518862932 543.0580079512686 L905.0966799187809 543.0580079512686 L905.0966799187809 362.03867196751236 L1086.1160159025371 362.03867196751236 Z" style="fill:rgba(29, 79, 216, 255)" />
  <path d="M 1629.1740238538057 543.0580079512686 L1448.1546878700494 543.0580079512686 L1448.1546878700494 362.03867196751236 L1629.1740238538057 362.03867196751236 L1991.212695821318 362.03867196751236 L1991.212695821318 543.0580079512686 L1810.1933598375617 543.0580079512686 L1448.1546878700494 543.0580079512686 L1448.1546878700494 362.03867196751236 L1629.1740238538057 362.03867196751236 Z" style="fill:rgba(59, 131, 246, 255)" />
  <path d="M 2172.2320318050743 543.0580079512686 L1991.212695821318 543.0580079512686 L1991.212695821318 362.03867196751236 L2172.2320318050743 362.03867196751236 L2353.2513677888305 362.03867196751236 L2353.2513677888305 543.0580079512686 L2172.2320318050743 543.0580079512686 L1991.212695821318 543.0580079512686 L1991.212695821318 362.03867196751236 L2172.2320318050743 362.03867196751236 Z" style="fill:rgba(29, 79, 216, 255)" />
  <path d="M 724.0773439350247 724.0773439350247 L724.0773439350247 543.0580079512686 L905.0966799187809 543.0580079512686 L905.0966799187809 724.0773439350247 Z" style="fill:rgba(29, 79, 216, 255)" />
  <path d="M 1086.1160159025371 905.0966799187809 L905.0966799187809 905.0966799187809 L724.0773439350247 905.0966799187809 L724.0773439350247 724.0773439350247 L905.0966799187809 724.0773439350247 L905.0966799187809 905.0966799187809 L905.0966799187809 2715.2900397563426 L724.0773439350247 2715.2900397563426 L181.01933598375618 2715.2900397563426 L181.01933598375618 2534.2707037725863 L181.01933598375618 2353.2513677888305 L362.03867196751236 2353.2513677888305 L724.0773439350247 2353.2513677888305 L724.0773439350247 2534.2707037725863 L543.0580079512686 2534.2707037725863 L543.0580079512686 2353.2513677888305 L543.0580079512686 1810.1933598375617 L724.0773439350247 1810.1933598375617 L905.0966799187809 1810.1933598375617 L905.0966799187809 1991.212695821318 L724.0773439350247 1991.212695821318 L724.0773439350247 1810.1933598375617 L724.0773439350247 724.0773439350247 L905.0966799187809 724.0773439350247 L1086.1160159025371 724.0773439350247 L1086.1160159025371 905.0966799187809 L905.0966799187809 905.0966799187809 L905.0966799187809 724.0773439350247 L905.0966799187809 543.0580079512686 L1086.1160159025371 543.0580079512686 L1086.1160159025371 724.0773439350247 Z" style="fill:rgba(59, 131, 246, 255)" />
  <path d="M 1267.1353518862932 724.0773439350247 L1086.1160159025371 724.0773439350247 L1086.1160159025371 543.0580079512686 L1267.1353518862932 543.0580079512686 L1448.1546878700494 543.0580079512686 L1448.1546878700494 724.0773439350247 L1267.1353518862932 724.0773439350247 L1086.1160159025371 724.0773439350247 L1086.1160159025371 543.0580079512686 L1267.1353518862932 543.0580079512686 Z" style="fill:rgba(59, 131, 246, 255)" />
  <path d="M 1629.1740238538057 724.0773439350247 L1448.1546878700494 724.0773439350247 L1448.1546878700494 543.0580079512686 L1629.1740238538057 543.0580079512686 L1991.212695821318 543.0580079512686 L1991.212695821318 724.0773439350247 L1810.1933598375617 724.0773439350247 L1448.1546878700494 724.0773439350247 L1448.1546878700494 543.0580079512686 L1629.1740238538057 543.0580079512686 Z" style="fill:rgba(29, 79, 216, 255)" />
  <path d="M 2172.2320318050743 905.0966799187809 L1991.212695821318 905.0966799187809 L1991.212695821318 724.0773439350247 L2172.2320318050743 724.0773439350247 L2353.2513677888305 724.0773439350247 L2353.2513677888305 905.0966799187809 L2172.2320318050743 905.0966799187809 L2172.2320318050743 724.0773439350247 L2172.2320318050743 543.0580079512686 L2353.2513677888305 543.0580079512686 L2353.2513677888305 724.0773439350247 L2172.2320318050743 724.0773439350247 L1991.212695821318 724.0773439350247 L1991.212695821318 543.0580079512686 L2172.2320318050743 543.0580079512686 L2172.2320318050743 724.0773439350247 Z" style="fill:rgba(0, 0, 0, 0)" />
  <path d="M 2534.2707037725863 1810.1933598375617 L2353.2513677888305 1810.1933598375617 L2353.2513677888305 1629.1740238538057 L2353.2513677888305 543.0580079512686 L2534.2707037725863 543.0580079512686 L2534.2707037725863 724.0773439350247 Z" style="fill:rgba(29, 79, 216, 255)" />
  <path d="M 181.01933598375618 1086.1160159025371 L0 1086.1160159025371 L0 905.0966799187809 L181.01933598375618 905.0966799187809 L362.03867196751236 905.0966799187809 L362.03867196751236 1086.1160159025371 L181.01933598375618 1086.1160159025371 L181.01933598375618 905.0966799187809 L181.01933598375618 724.0773439350247 L362.03867196751236 724.0773439350247 L362.03867196751236 905.0966799187809 L181.01933598375618 905.0966799187809 L0 905.0966799187809 L0 724.0773439350247 L181.01933598375618 724.0773439350247 L181.01933598375618 905.0966799187809 Z" style="fill:rgba(0, 0, 0, 0)" />
  <path d="M 543.0580079512686 1810.1933598375617 L362.03867196751236 1810.1933598375617 L0 1810.1933598375617 L0 1629.1740238538057 L181.01933598375618 1629.1740238538057 L181.01933598375618 1810.1933598375617 L181.01933598375618 1991.212695821318 L0 1991.212695821318 L0 1810.1933598375617 L0 1086.1160159025371 L181.01933598375618 1086.1160159025371 L543.0580079512686 1086.1160159025371 L543.0580079512686 1267.1353518862932 L362.03867196751236 1267.1353518862932 L362.03867196751236 1086.1160159025371 L362.03867196751236 724.0773439350247 L543.0580079512686 724.0773439350247 L543.0580079512686 905.0966799187809 Z" style="fill:rgba(0, 0, 0, 0)" />
  <path d="M 724.0773439350247 1810.1933598375617 L543.0580079512686 1810.1933598375617 L543.0580079512686 1629.1740238538057 L543.0580079512686 724.0773439350247 L724.0773439350247 724.0773439350247 L724.0773439350247 905.0966799187809 Z" style="fill:rgba(29, 79, 216, 255)" />
  <path d="M 1267.1353518862932 905.0966799187809 L1086.1160159025371 905.0966799187809 L1086.1160159025371 724.0773439350247 L1267.1353518862932 724.0773439350247 L1448.1546878700494 724.0773439350247 L1448.1546878700494 905.0966799187809 L1267.1353518862932 905.0966799187809 L1086.1160159025371 905.0966799187809 L1086.1160159025371 724.0773439350247 L1267.1353518862932 724.0773439350247 Z" style="fill:rgba(29, 79, 216, 255)" />
  <path d="M 1629.1740238538057 1086.1160159025371 L1448.1546878700494 1086.1160159025371 L1448.1546878700494 905.0966799187809 L1629.1740238538057 905.0966799187809 L1810.1933598375617 905.0966799187809 L1810.1933598375617 1086.1160159025371 L1629.1740238538057 1086.1160159025371 L1629.1740238538057 905.0966799187809 L1629.1740238538057 724.0773439350247 L1810.1933598375617 724.0773439350247 L1810.1933598375617 905.0966799187809 L1629.1740238538057 905.0966799187809 L1448.1546878700494 905.0966799187809 L1448.1546878700494 724.0773439350247 L1629.1740238538057 724.0773439350247 L1629.1740238538057 905.0966799187809 Z" style="fill:rgba(0, 0, 0, 0)" />
  <path d="M 1991.212695821318 1086.1160159025371 L1810.1933598375617 1086.1160159025371 L1810.1933598375617 905.0966799187809 L1991.212695821318 905.0966799187809 L2353.2513677888305 905.0966799187809 L2353.2513677888305 1086.1160159025371 L2353.2513677888305 1810.1933598375617 L2172.2320318050743 1810.1933598375617 L1810.1933598375617 1810.1933598375617 L1810.1933598375617 1629.1740238538057 L1991.212695821318 1629.1740238538057 L1991.212695821318 1810.1933598375617 L1991.212695821318 1991.212695821318 L1810.1933598375617 1991.212695821318 L1629.1740238538057 1991.212695821318 L1629.1740238538057 1810.1933598375617 L1810.1933598375617 1810.1933598375617 L1810.1933598375617 1991.212695821318 L1810.1933598375617 2896.309375740099 L1629.1740238538057 2896.309375740099 L1629.1740238538057 2715.2900397563426 L1810.1933598375617 2715.2900397563426 L1991.212695821318 2715.2900397563426 L1991.212695821318 2896.309375740099 L1810.1933598375617 2896.309375740099 L905.0966799187809 2896.309375740099 L905.0966799187809 2715.2900397563426 L1086.1160159025371 2715.2900397563426 L1267.1353518862932 2715.2900397563426 L1267.1353518862932 2896.309375740099 L1086.1160159025371 2896.309375740099 L1086.1160159025371 2715.2900397563426 L1086.1160159025371 905.0966799187809 L1267.1353518862932 905.0966799187809 L1448.1546878700494 905.0966799187809 L1448.1546878700494 1086.1160159025371 L1448.1546878700494 1267.1353518862932 L1267.1353518862932 1267.1353518862932 L1267.1353518862932 1086.1160159025371 L1448.1546878700494 1086.1160159025371 L1991.212695821318 1086.1160159025371 L1991.212695821318 1267.1353518862932 L1810.1933598375617 1267.1353518862932 L1810.1933598375617 1086.1160159025371 L1810.1933598375617 724.0773439350247 L1991.212695821318 724.0773439350247 L1991.212695821318 905.0966799187809 Z" style="fill:rgba(0, 0, 0, 0)" />
  <path d="M 1086.1160159025371 2715.2900397563426 L905.0966799187809 2715.2900397563426 L905.0966799187809 2534.2707037725863 L905.0966799187809 905.0966799187809 L1086.1160159025371 905.0966799187809 L1086.1160159025371 1086.1160159025371 Z" style="fill:rgba(29, 79, 216, 255)" />
  <path d="M 2172.2320318050743 1629.1740238538057 L1991.212695821318 1629.1740238538057 L1629.1740238538057 1629.1740238538057 L1629.1740238538057 1448.1546878700494 L1810.1933598375617 1448.1546878700494 L1810.1933598375617 1629.1740238538057 L1810.1933598375617 1810.1933598375617 L1629.1740238538057 1810.1933598375617 L1448.1546878700494 1810.1933598375617 L1448.1546878700494 1629.1740238538057 L1629.1740238538057 1629.1740238538057 L1629.1740238538057 1810.1933598375617 L1629.1740238538057 2715.2900397563426 L1448.1546878700494 2715.2900397563426 L1267.1353518862932 2715.2900397563426 L1267.1353518862932 2534.2707037725863 L1267.1353518862932 1267.1353518862932 L1448.1546878700494 1267.1353518862932 L2172.2320318050743 1267.1353518862932 L2172.2320318050743 1448.1546878700494 L1991.212695821318 1448.1546878700494 L1991.212695821318 1267.1353518862932 L1991.212695821318 1086.1160159025371 L2172.2320318050743 1086.1160159025371 L2172.2320318050743 1267.1353518862932 Z" style="fill:rgba(0, 0, 0, 0)" />
  <path d="M 362.03867196751236 1629.1740238538057 L181.01933598375618 1629.1740238538057 L181.01933598375618 1448.1546878700494 L181.01933598375618 1267.1353518862932 L362.03867196751236 1267.1353518862932 L362.03867196751236 1448.1546878700494 Z" style="fill:rgba(0, 0, 0, 0)" />
  <path d="M 1448.1546878700494 1629.1740238538057 L1448.1546878700494 1448.1546878700494 L1629.1740238538057 1448.1546878700494 L1629.1740238538057 1629.1740238538057 Z" style="fill:rgba(0, 0, 0, 0)" />
  <path d="M 362.03867196751236 1991.212695821318 L181.01933598375618 1991.212695821318 L181.01933598375618 1810.1933598375617 L362.03867196751236 1810.1933598375617 L543.0580079512686 1810.1933598375617 L543.0580079512686 1991.212695821318 L362.03867196751236 1991.212695821318 L181.01933598375618 1991.212695821318 L181.01933598375618 1810.1933598375617 L362.03867196751236 1810.1933598375617 Z" style="fill:rgba(29, 79, 216, 255)" />
  <path d="M 2172.2320318050743 1991.212695821318 L1991.212695821318 1991.212695821318 L1991.212695821318 1810.1933598375617 L2172.2320318050743 1810.1933598375617 L2353.2513677888305 1810.1933598375617 L2353.2513677888305 1991.212695821318 L2172.2320318050743 1991.212695821318 L1991.212695821318 1991.212695821318 L1991.212695821318 1810.1933598375617 L2172.2320318050743 1810.1933598375617 Z" style="fill:rgba(29, 79, 216, 255)" />
  <path d="M 181.01933598375618 2715.2900397563426 L0 2715.2900397563426 L0 2534.2707037725863 L0 1991.212695821318 L181.01933598375618 1991.212695821318 L181.01933598375618 2172.2320318050743 Z" style="fill:rgba(29, 79, 216, 255)" />
  <path d="M 362.03867196751236 2353.2513677888305 L181.01933598375618 2353.2513677888305 L181.01933598375618 2172.2320318050743 L362.03867196751236 2172.2320318050743 L543.0580079512686 2172.2320318050743 L543.0580079512686 2353.2513677888305 L362.03867196751236 2353.2513677888305 L362.03867196751236 2172.2320318050743 L362.03867196751236 1991.212695821318 L543.0580079512686 1991.212695821318 L543.0580079512686 2172.2320318050743 L362.03867196751236 2172.2320318050743 L181.01933598375618 2172.2320318050743 L181.01933598375618 1991.212695821318 L362.03867196751236 1991.212695821318 L362.03867196751236 2172.2320318050743 Z" style="fill:rgba(147, 196, 253, 255)" />
  <path d="M 1991.212695821318 2715.2900397563426 L1810.1933598375617 2715.2900397563426 L1810.1933598375617 2534.2707037725863 L1810.1933598375617 1991.212695821318 L1991.212695821318 1991.212695821318 L1991.212695821318 2172.2320318050743 Z" style="fill:rgba(29, 79, 216, 255)" />
  <path d="M 2172.2320318050743 2353.2513677888305 L1991.212695821318 2353.2513677888305 L1991.212695821318 2172.2320318050743 L2172.2320318050743 2172.2320318050743 L2353.2513677888305 2172.2320318050743 L2353.2513677888305 2353.2513677888305 L2172.2320318050743 2353.2513677888305 L2172.2320318050743 2172.2320318050743 L2172.2320318050743 1991.212695821318 L2353.2513677888305 1991.212695821318 L2353.2513677888305 2172.2320318050743 L2172.2320318050743 2172.2320318050743 L1991.212695821318 2172.2320318050743 L1991.212695821318 1991.212695821318 L2172.2320318050743 1991.212695821318 L2172.2320318050743 2172.2320318050743 Z" style="fill:rgba(147, 196, 253, 255)" />
  <path d="M 0 2896.309375740099 L0 2715.2900397563426 L181.01933598375618 2715.2900397563426 L181.01933598375618 2896.309375740099 Z" style="fill:rgba(0, 0, 0, 0)" />
  <path d="M 362.03867196751236 2896.309375740099 L181.01933598375618 2896.309375740099 L181.01933598375618 2715.2900397563426 L362.03867196751236 2715.2900397563426 L905.0966799187809 2715.2900397563426 L905.0966799187809 2896.309375740099 L724.0773439350247 2896.309375740099 L181.01933598375618 2896.309375740099 L181.01933598375618 2715.2900397563426 L362.03867196751236 2715.2900397563426 Z" style="fill:rgba(29, 79, 216, 255)" />
  <path d="M 2172.2320318050743 2896.309375740099 L1991.212695821318 2896.309375740099 L1991.212695821318 2715.2900397563426 L2172.2320318050743 2715.2900397563426 L2715.2900397563426 2715.2900397563426 L2715.2900397563426 2896.309375740099 L2534.2707037725863 2896.309375740099 L1991.212695821318 2896.309375740099 L1991.212695821318 2715.2900397563426 L2172.2320318050743 2715.2900397563426 Z" style="fill:rgba(29, 79, 216, 255)" />
  <path d="M 2715.2900397563426 2896.309375740099 L2715.2900397563426 2715.2900397563426 L2896.309375740099 2715.2900397563426 L2896.309375740099 2896.309375740099 Z" style="fill:rgba(0, 0, 0, 0)" />
</svg>
